<?xml version="1.0" encoding="iso-8859-1"?>
<!-- Uploaded to: SVG Repo, www.svgrepo.com, Generator: SVG Repo Mixer Tools -->
<svg height="800px" width="800px" version="1.1" id="Layer_1" xmlns="http://www.w3.org/2000/svg" xmlns:xlink="http://www.w3.org/1999/xlink" 
	 viewBox="0 0 511.999 511.999" xml:space="preserve">
<path style="fill:#933EC5;" d="M422.825,444.215L271.785,11.866C269.445,5.145,263.116,0.697,256,0.697
	c-7.117,0-13.446,4.424-15.785,11.145L89.697,444.215H422.825z"/>
<path style="fill:#6D2C93;" d="M255.724,444.215h167.102L271.785,11.866c-2.286-6.567-8.382-10.953-15.3-11.15
	c-0.266,0.052-0.521,0.078-0.761,0.075V444.215z"/>
<polygon style="fill:#3E3D42;" points="101.335,410.787 256.241,410.787 411.147,410.787 399.469,377.36 387.792,343.933 
	256.2,343.933 124.608,343.933 112.971,377.36 "/>
<polygon style="fill:#1D1D1F;" points="387.792,343.933 256.2,343.933 255.724,343.933 255.724,410.787 256.241,410.787 
	411.147,410.787 399.469,377.36 "/>
<path style="fill:#A258CD;" d="M495.147,410.787h-84.467c-41.932,0-348.623,0-393.827,0c-13.402,0-21.524,15.168-13.936,26.215
	c29.351,42.73,134.616,74.244,253.082,74.244c118.467,0,223.732-31.544,253.082-74.274
	C516.671,425.927,508.549,410.787,495.147,410.787z"/>
<path style="fill:#933EC5;" d="M495.147,410.787h-84.467H255.724v100.515c119.224-0.049,223.755-31.602,253.082-74.299
	C516.394,425.956,508.549,410.787,495.147,410.787z"/>
<polygon style="fill:#FFDA44;" points="311.436,410.787 255.724,410.787 200.012,410.787 200.012,377.36 200.012,343.933 
	255.724,343.933 311.436,343.933 311.436,377.36 "/>
<polygon style="fill:#EEBF00;" points="311.436,410.787 311.436,377.36 311.436,343.933 255.724,343.933 255.724,410.787 "/>
</svg>